{
	"asset":{
		"generator":"Khronos glTF Blender I/O v4.0.44",
		"version":"2.0"
	},
	"scene":0,
	"scenes":[
		{
			"name":"Scene",
			"nodes":[
				1,
				2,
				3,
				4,
				5,
				7,
				11
			]
		}
	],
	"nodes":[
		{
			"name":"Lamp.001"
		},
		{
			"children":[
				0
			],
			"name":"Lamp",
			"rotation":[
				0.16905848681926727,
				0.27216288447380066,
				0.755890429019928,
				0.5709433555603027
			],
			"scale":[
				0.09941789507865906,
				0.09941624850034714,
				0.09942194819450378
			],
			"translation":[
				3.353519916534424,
				0.3998900353908539,
				9.316169738769531
			]
		},
		{
			"name":"Node_4"
		},
		{
			"name":"Cylinder.001",
			"scale":[
				0.09942000359296799,
				0.09942000359296799,
				0.09942000359296799
			],
			"translation":[
				14.132538795471191,
				3.6126222610473633,
				0.20067405700683594
			]
		},
		{
			"name":"Cylinder.005",
			"rotation":[
				0.70710688829422,
				0,
				0,
				0.7071066498756409
			],
			"scale":[
				0.08947999775409698,
				0.08947999030351639,
				0.08947999030351639
			],
			"translation":[
				15.209088325500488,
				-3.1585278511047363,
				0.016234397888183594
			]
		},
		{
			"name":"Cylinder.007",
			"scale":[
				0.09942000359296799,
				0.09942000359296799,
				0.09942000359296799
			],
			"translation":[
				14.132538795471191,
				3.6126222610473633,
				0.20067405700683594
			]
		},
		{
			"name":"Lamp.003",
			"translation":[
				0,
				6.67572021484375e-06,
				5.7220458984375e-06
			]
		},
		{
			"children":[
				6
			],
			"name":"Lamp.002",
			"rotation":[
				0.16905847191810608,
				0.27216285467147827,
				0.755890429019928,
				0.5709433555603027
			],
			"scale":[
				0.09941788762807846,
				0.09941624104976654,
				0.09942194819450378
			],
			"translation":[
				18.584548950195312,
				1.6481022834777832,
				-5.849586486816406
			]
		},
		{
			"mesh":0,
			"name":"object_0"
		},
		{
			"mesh":1,
			"name":"object_1"
		},
		{
			"mesh":2,
			"name":"object_2"
		},
		{
			"children":[
				8,
				9,
				10
			],
			"name":"Node_3",
			"scale":[
				5.476792812347412,
				5.476792812347412,
				5.476792812347412
			],
			"translation":[
				15.23102855682373,
				1.2482123374938965,
				0.1060638427734375
			]
		}
	],
	"materials":[
		{
			"name":"object_0.001",
			"pbrMetallicRoughness":{
				"baseColorTexture":{
					"index":0
				},
				"metallicFactor":0.3254545331001282,
				"roughnessFactor":0.5
			}
		},
		{
			"name":"object_1",
			"pbrMetallicRoughness":{
				"baseColorTexture":{
					"index":1
				},
				"metallicFactor":0.19818180799484253,
				"roughnessFactor":0.05272728204727173
			}
		},
		{
			"name":"object_2",
			"pbrMetallicRoughness":{
				"metallicFactor":0.5,
				"roughnessFactor":0.5
			}
		}
	],
	"meshes":[
		{
			"name":"Mesh_0.001",
			"primitives":[
				{
					"attributes":{
						"POSITION":0,
						"NORMAL":1,
						"TEXCOORD_0":2
					},
					"indices":3,
					"material":0
				}
			]
		},
		{
			"name":"Mesh_1",
			"primitives":[
				{
					"attributes":{
						"POSITION":4,
						"NORMAL":5,
						"TEXCOORD_0":6
					},
					"indices":7,
					"material":1
				}
			]
		},
		{
			"name":"Mesh_2",
			"primitives":[
				{
					"attributes":{
						"POSITION":8,
						"NORMAL":9,
						"TEXCOORD_0":10
					},
					"indices":11,
					"material":2
				}
			]
		}
	],
	"textures":[
		{
			"sampler":0,
			"source":0
		},
		{
			"sampler":0,
			"source":1
		}
	],
	"images":[
		{
			"mimeType":"image/png",
			"name":"RGB_d451f32bd369453b83f877e0bb5b7fc0_guzheng_BlinnCol_albedo",
			"uri":"RGB_d451f32bd369453b83f877e0bb5b7fc0_guzheng_BlinnCol_albedo.png"
		},
		{
			"mimeType":"image/png",
			"name":"R_a45754fd21b043d59eff29085094f445_guzheng_BlinnCol_metallic",
			"uri":"R_a45754fd21b043d59eff29085094f445_guzheng_BlinnCol_metallic.png"
		}
	],
	"accessors":[
		{
			"bufferView":0,
			"componentType":5126,
			"count":311328,
			"max":[
				0.9999994039535522,
				0.4093928635120392,
				0.2210656851530075
			],
			"min":[
				-1,
				-0.4093930125236511,
				-0.22106599807739258
			],
			"type":"VEC3"
		},
		{
			"bufferView":1,
			"componentType":5126,
			"count":311328,
			"type":"VEC3"
		},
		{
			"bufferView":2,
			"componentType":5126,
			"count":311328,
			"type":"VEC2"
		},
		{
			"bufferView":3,
			"componentType":5125,
			"count":311328,
			"type":"SCALAR"
		},
		{
			"bufferView":4,
			"componentType":5126,
			"count":30624,
			"max":[
				-0.29829704761505127,
				0.24704141914844513,
				0.2210656851530075
			],
			"min":[
				-0.7262570261955261,
				-0.4093930125236511,
				-0.22106599807739258
			],
			"type":"VEC3"
		},
		{
			"bufferView":5,
			"componentType":5126,
			"count":30624,
			"type":"VEC3"
		},
		{
			"bufferView":6,
			"componentType":5126,
			"count":30624,
			"type":"VEC2"
		},
		{
			"bufferView":7,
			"componentType":5123,
			"count":30624,
			"type":"SCALAR"
		},
		{
			"bufferView":8,
			"componentType":5126,
			"count":38304,
			"max":[
				0.8547424674034119,
				0.33644500374794006,
				0.18723973631858826
			],
			"min":[
				-0.8552719950675964,
				0.2913320064544678,
				-0.18727000057697296
			],
			"type":"VEC3"
		},
		{
			"bufferView":9,
			"componentType":5126,
			"count":38304,
			"type":"VEC3"
		},
		{
			"bufferView":10,
			"componentType":5126,
			"count":38304,
			"type":"VEC2"
		},
		{
			"bufferView":11,
			"componentType":5123,
			"count":38304,
			"type":"SCALAR"
		}
	],
	"bufferViews":[
		{
			"buffer":0,
			"byteLength":3735936,
			"byteOffset":0,
			"target":34962
		},
		{
			"buffer":0,
			"byteLength":3735936,
			"byteOffset":3735936,
			"target":34962
		},
		{
			"buffer":0,
			"byteLength":2490624,
			"byteOffset":7471872,
			"target":34962
		},
		{
			"buffer":0,
			"byteLength":1245312,
			"byteOffset":9962496,
			"target":34963
		},
		{
			"buffer":0,
			"byteLength":367488,
			"byteOffset":11207808,
			"target":34962
		},
		{
			"buffer":0,
			"byteLength":367488,
			"byteOffset":11575296,
			"target":34962
		},
		{
			"buffer":0,
			"byteLength":244992,
			"byteOffset":11942784,
			"target":34962
		},
		{
			"buffer":0,
			"byteLength":61248,
			"byteOffset":12187776,
			"target":34963
		},
		{
			"buffer":0,
			"byteLength":459648,
			"byteOffset":12249024,
			"target":34962
		},
		{
			"buffer":0,
			"byteLength":459648,
			"byteOffset":12708672,
			"target":34962
		},
		{
			"buffer":0,
			"byteLength":306432,
			"byteOffset":13168320,
			"target":34962
		},
		{
			"buffer":0,
			"byteLength":76608,
			"byteOffset":13474752,
			"target":34963
		}
	],
	"samplers":[
		{
			"magFilter":9729,
			"minFilter":9987
		}
	],
	"buffers":[
		{
			"byteLength":13551360,
			"uri":"dan_tranh.bin"
		}
	]
}
