{
	"asset":{
		"generator":"Khronos glTF Blender I/O v4.0.44",
		"version":"2.0"
	},
	"scene":0,
	"scenes":[
		{
			"name":"Scene",
			"nodes":[
				0,
				1,
				2,
				3,
				4,
				5,
				6,
				7,
				8
			]
		}
	],
	"nodes":[
		{
			"mesh":0,
			"name":"Cube",
			"scale":[
				1.070866584777832,
				1,
				1.3467961549758911
			],
			"translation":[
				29.889408111572266,
				-0.014287843368947506,
				4.042786121368408
			]
		},
		{
			"mesh":1,
			"name":"Sphere",
			"rotation":[
				0.7027631402015686,
				0.024291999638080597,
				0.7110077142715454,
				0.0014038849622011185
			],
			"scale":[
				1.138338565826416,
				0.7886282801628113,
				0.7802969813346863
			],
			"translation":[
				29.924699783325195,
				1.516396403312683,
				-6.510822772979736
			]
		},
		{
			"mesh":2,
			"name":"Cylinder.001",
			"rotation":[
				-0.5006012916564941,
				0.49811217188835144,
				-0.485355943441391,
				0.5154730081558228
			],
			"scale":[
				0.07397886365652084,
				0.10304059833288193,
				0.07396353036165237
			],
			"translation":[
				29.891292572021484,
				1.52791166305542,
				-7.663829326629639
			]
		},
		{
			"mesh":3,
			"name":"Cone.001",
			"rotation":[
				-0.497621089220047,
				0.5010890960693359,
				-0.48227235674858093,
				0.518359363079071
			],
			"scale":[
				0.1805255115032196,
				0.04959472268819809,
				0.18059933185577393
			],
			"translation":[
				29.914806365966797,
				1.5418888330459595,
				-7.771825313568115
			]
		},
		{
			"name":"Empty",
			"translation":[
				29.870073318481445,
				0,
				0
			]
		},
		{
			"mesh":4,
			"name":"Cylinder.002",
			"rotation":[
				-0.020339859649538994,
				-0.7918855547904968,
				0.04943917691707611,
				0.6083250641822815
			],
			"scale":[
				0.10387830436229706,
				0.21505874395370483,
				0.10387829691171646
			],
			"translation":[
				29.828279495239258,
				5.676811695098877,
				-6.598134994506836
			]
		},
		{
			"mesh":5,
			"name":"Sphere.001",
			"scale":[
				0.2510366439819336,
				0.2510366439819336,
				0.2510366439819336
			],
			"translation":[
				29.870073318481445,
				1.6465455293655396,
				6.676548004150391
			]
		},
		{
			"mesh":6,
			"name":"Cylinder.003",
			"rotation":[
				0.7155651450157166,
				0,
				0,
				0.6985459923744202
			],
			"scale":[
				0.013982528820633888,
				6.978212356567383,
				0.014958485029637814
			],
			"translation":[
				29.865966796875,
				1.4703360795974731,
				-0.00039103845483623445
			]
		},
		{
			"mesh":7,
			"name":"Cone",
			"rotation":[
				-0.7071068286895752,
				0,
				0,
				0.7071068286895752
			],
			"translation":[
				30.001127243041992,
				1.5532097816467285,
				-4.588897705078125
			]
		}
	],
	"materials":[
		{
			"doubleSided":true,
			"name":"Material.044",
			"pbrMetallicRoughness":{
				"baseColorFactor":[
					0.12732306122779846,
					0.01267398800700903,
					0,
					1
				],
				"metallicFactor":0,
				"roughnessFactor":0.5
			}
		},
		{
			"doubleSided":true,
			"name":"Material.046",
			"pbrMetallicRoughness":{
				"baseColorFactor":[
					0.061247341334819794,
					0.026241764426231384,
					0.021219048649072647,
					1
				],
				"metallicFactor":0,
				"roughnessFactor":0.5
			}
		},
		{
			"doubleSided":true,
			"name":"Material.047",
			"pbrMetallicRoughness":{
				"baseColorFactor":[
					0.01520833931863308,
					0.006995455827564001,
					0.005181607790291309,
					1
				],
				"metallicFactor":0,
				"roughnessFactor":0.5
			}
		},
		{
			"doubleSided":true,
			"name":"Material.048",
			"pbrMetallicRoughness":{
				"baseColorFactor":[
					0.05448126420378685,
					0.02315366081893444,
					0.01849992573261261,
					1
				],
				"metallicFactor":0,
				"roughnessFactor":0.5
			}
		},
		{
			"doubleSided":true,
			"name":"Material.049",
			"pbrMetallicRoughness":{
				"baseColorFactor":[
					0.10398803651332855,
					0.004781017079949379,
					0,
					1
				],
				"metallicFactor":0,
				"roughnessFactor":0.5
			}
		},
		{
			"doubleSided":true,
			"name":"Material.050",
			"pbrMetallicRoughness":{
				"baseColorFactor":[
					0.2876706123352051,
					0.0424206368625164,
					0,
					1
				],
				"metallicFactor":0,
				"roughnessFactor":0.5
			}
		},
		{
			"doubleSided":true,
			"name":"Material.051",
			"pbrMetallicRoughness":{
				"metallicFactor":0,
				"roughnessFactor":0.5
			}
		}
	],
	"meshes":[
		{
			"name":"Cube.030",
			"primitives":[
				{
					"attributes":{
						"POSITION":0,
						"NORMAL":1,
						"TEXCOORD_0":2
					},
					"indices":3,
					"material":0
				}
			]
		},
		{
			"name":"Sphere.002",
			"primitives":[
				{
					"attributes":{
						"POSITION":4,
						"NORMAL":5,
						"TEXCOORD_0":6
					},
					"indices":7,
					"material":1
				}
			]
		},
		{
			"name":"Cylinder.013",
			"primitives":[
				{
					"attributes":{
						"POSITION":8,
						"NORMAL":9,
						"TEXCOORD_0":10
					},
					"indices":11,
					"material":2
				}
			]
		},
		{
			"name":"Cone.002",
			"primitives":[
				{
					"attributes":{
						"POSITION":12,
						"NORMAL":13,
						"TEXCOORD_0":14
					},
					"indices":15,
					"material":3
				}
			]
		},
		{
			"name":"Cylinder.014",
			"primitives":[
				{
					"attributes":{
						"POSITION":16,
						"NORMAL":17,
						"TEXCOORD_0":18
					},
					"indices":19,
					"material":4
				}
			]
		},
		{
			"name":"Sphere.003",
			"primitives":[
				{
					"attributes":{
						"POSITION":20,
						"NORMAL":21,
						"TEXCOORD_0":22
					},
					"indices":23,
					"material":5
				}
			]
		},
		{
			"name":"Cylinder.015",
			"primitives":[
				{
					"attributes":{
						"POSITION":24,
						"NORMAL":25,
						"TEXCOORD_0":26
					},
					"indices":11,
					"material":6
				}
			]
		},
		{
			"name":"Cone.003",
			"primitives":[
				{
					"attributes":{
						"POSITION":27,
						"NORMAL":28,
						"TEXCOORD_0":29
					},
					"indices":30
				}
			]
		}
	],
	"accessors":[
		{
			"bufferView":0,
			"componentType":5126,
			"count":76,
			"max":[
				1.070732593536377,
				1.1584203243255615,
				3.3292124271392822
			],
			"min":[
				-1.0180555582046509,
				-1.0165717601776123,
				-8.124574661254883
			],
			"type":"VEC3"
		},
		{
			"bufferView":1,
			"componentType":5126,
			"count":76,
			"type":"VEC3"
		},
		{
			"bufferView":2,
			"componentType":5126,
			"count":76,
			"type":"VEC2"
		},
		{
			"bufferView":3,
			"componentType":5123,
			"count":114,
			"type":"SCALAR"
		},
		{
			"bufferView":4,
			"componentType":5126,
			"count":1964,
			"max":[
				0.9856365919113159,
				1,
				0.9999994039535522
			],
			"min":[
				-0.9763020873069763,
				-1,
				-0.9999999403953552
			],
			"type":"VEC3"
		},
		{
			"bufferView":5,
			"componentType":5126,
			"count":1964,
			"type":"VEC3"
		},
		{
			"bufferView":6,
			"componentType":5126,
			"count":1964,
			"type":"VEC2"
		},
		{
			"bufferView":7,
			"componentType":5123,
			"count":2808,
			"type":"SCALAR"
		},
		{
			"bufferView":8,
			"componentType":5126,
			"count":192,
			"max":[
				1,
				1,
				1
			],
			"min":[
				-1,
				-1,
				-1
			],
			"type":"VEC3"
		},
		{
			"bufferView":9,
			"componentType":5126,
			"count":192,
			"type":"VEC3"
		},
		{
			"bufferView":10,
			"componentType":5126,
			"count":192,
			"type":"VEC2"
		},
		{
			"bufferView":11,
			"componentType":5123,
			"count":372,
			"type":"SCALAR"
		},
		{
			"bufferView":12,
			"componentType":5126,
			"count":256,
			"max":[
				1.003210186958313,
				2.0044448375701904,
				1.003662109375
			],
			"min":[
				-1.0032099485397339,
				-2.0044431686401367,
				-1.003662109375
			],
			"type":"VEC3"
		},
		{
			"bufferView":13,
			"componentType":5126,
			"count":256,
			"type":"VEC3"
		},
		{
			"bufferView":14,
			"componentType":5126,
			"count":256,
			"type":"VEC2"
		},
		{
			"bufferView":15,
			"componentType":5123,
			"count":372,
			"type":"SCALAR"
		},
		{
			"bufferView":16,
			"componentType":5126,
			"count":3824,
			"max":[
				1.1713814735412598,
				15.969871520996094,
				1.1526648998260498
			],
			"min":[
				-5.130160808563232,
				-30.39019775390625,
				-1.1435203552246094
			],
			"type":"VEC3"
		},
		{
			"bufferView":17,
			"componentType":5126,
			"count":3824,
			"type":"VEC3"
		},
		{
			"bufferView":18,
			"componentType":5126,
			"count":3824,
			"type":"VEC2"
		},
		{
			"bufferView":19,
			"componentType":5123,
			"count":5052,
			"type":"SCALAR"
		},
		{
			"bufferView":20,
			"componentType":5126,
			"count":2242,
			"max":[
				1.1756173372268677,
				1.1188641786575317,
				1.1854186058044434
			],
			"min":[
				-1.1756173372268677,
				-3.692847490310669,
				-1.165816068649292
			],
			"type":"VEC3"
		},
		{
			"bufferView":21,
			"componentType":5126,
			"count":2242,
			"type":"VEC3"
		},
		{
			"bufferView":22,
			"componentType":5126,
			"count":2242,
			"type":"VEC2"
		},
		{
			"bufferView":23,
			"componentType":5123,
			"count":3288,
			"type":"SCALAR"
		},
		{
			"bufferView":24,
			"componentType":5126,
			"count":192,
			"max":[
				1,
				1,
				1
			],
			"min":[
				-1,
				-1,
				-1
			],
			"type":"VEC3"
		},
		{
			"bufferView":25,
			"componentType":5126,
			"count":192,
			"type":"VEC3"
		},
		{
			"bufferView":26,
			"componentType":5126,
			"count":192,
			"type":"VEC2"
		},
		{
			"bufferView":27,
			"componentType":5126,
			"count":128,
			"max":[
				1,
				1.9393939971923828,
				1
			],
			"min":[
				-1,
				-0.06060606241226196,
				-1
			],
			"type":"VEC3"
		},
		{
			"bufferView":28,
			"componentType":5126,
			"count":128,
			"type":"VEC3"
		},
		{
			"bufferView":29,
			"componentType":5126,
			"count":128,
			"type":"VEC2"
		},
		{
			"bufferView":30,
			"componentType":5123,
			"count":186,
			"type":"SCALAR"
		}
	],
	"bufferViews":[
		{
			"buffer":0,
			"byteLength":912,
			"byteOffset":0,
			"target":34962
		},
		{
			"buffer":0,
			"byteLength":912,
			"byteOffset":912,
			"target":34962
		},
		{
			"buffer":0,
			"byteLength":608,
			"byteOffset":1824,
			"target":34962
		},
		{
			"buffer":0,
			"byteLength":228,
			"byteOffset":2432,
			"target":34963
		},
		{
			"buffer":0,
			"byteLength":23568,
			"byteOffset":2660,
			"target":34962
		},
		{
			"buffer":0,
			"byteLength":23568,
			"byteOffset":26228,
			"target":34962
		},
		{
			"buffer":0,
			"byteLength":15712,
			"byteOffset":49796,
			"target":34962
		},
		{
			"buffer":0,
			"byteLength":5616,
			"byteOffset":65508,
			"target":34963
		},
		{
			"buffer":0,
			"byteLength":2304,
			"byteOffset":71124,
			"target":34962
		},
		{
			"buffer":0,
			"byteLength":2304,
			"byteOffset":73428,
			"target":34962
		},
		{
			"buffer":0,
			"byteLength":1536,
			"byteOffset":75732,
			"target":34962
		},
		{
			"buffer":0,
			"byteLength":744,
			"byteOffset":77268,
			"target":34963
		},
		{
			"buffer":0,
			"byteLength":3072,
			"byteOffset":78012,
			"target":34962
		},
		{
			"buffer":0,
			"byteLength":3072,
			"byteOffset":81084,
			"target":34962
		},
		{
			"buffer":0,
			"byteLength":2048,
			"byteOffset":84156,
			"target":34962
		},
		{
			"buffer":0,
			"byteLength":744,
			"byteOffset":86204,
			"target":34963
		},
		{
			"buffer":0,
			"byteLength":45888,
			"byteOffset":86948,
			"target":34962
		},
		{
			"buffer":0,
			"byteLength":45888,
			"byteOffset":132836,
			"target":34962
		},
		{
			"buffer":0,
			"byteLength":30592,
			"byteOffset":178724,
			"target":34962
		},
		{
			"buffer":0,
			"byteLength":10104,
			"byteOffset":209316,
			"target":34963
		},
		{
			"buffer":0,
			"byteLength":26904,
			"byteOffset":219420,
			"target":34962
		},
		{
			"buffer":0,
			"byteLength":26904,
			"byteOffset":246324,
			"target":34962
		},
		{
			"buffer":0,
			"byteLength":17936,
			"byteOffset":273228,
			"target":34962
		},
		{
			"buffer":0,
			"byteLength":6576,
			"byteOffset":291164,
			"target":34963
		},
		{
			"buffer":0,
			"byteLength":2304,
			"byteOffset":297740,
			"target":34962
		},
		{
			"buffer":0,
			"byteLength":2304,
			"byteOffset":300044,
			"target":34962
		},
		{
			"buffer":0,
			"byteLength":1536,
			"byteOffset":302348,
			"target":34962
		},
		{
			"buffer":0,
			"byteLength":1536,
			"byteOffset":303884,
			"target":34962
		},
		{
			"buffer":0,
			"byteLength":1536,
			"byteOffset":305420,
			"target":34962
		},
		{
			"buffer":0,
			"byteLength":1024,
			"byteOffset":306956,
			"target":34962
		},
		{
			"buffer":0,
			"byteLength":372,
			"byteOffset":307980,
			"target":34963
		}
	],
	"buffers":[
		{
			"byteLength":308352,
			"uri":"dan_bau.bin"
		}
	]
}
